<?xml version="1.0" encoding="UTF-8" standalone="no"?>
<!-- Created with Inkscape (http://www.inkscape.org/) -->

<svg
   xmlns:dc="http://purl.org/dc/elements/1.1/"
   xmlns:cc="http://creativecommons.org/ns#"
   xmlns:rdf="http://www.w3.org/1999/02/22-rdf-syntax-ns#"
   xmlns:svg="http://www.w3.org/2000/svg"
   xmlns="http://www.w3.org/2000/svg"
   xmlns:sodipodi="http://sodipodi.sourceforge.net/DTD/sodipodi-0.dtd"
   xmlns:inkscape="http://www.inkscape.org/namespaces/inkscape"
   width="37.228191mm"
   height="24.188393mm"
   viewBox="0 0 37.228191 24.188393"
   version="1.1"
   id="svg4078"
   inkscape:version="0.92.2 2405546, 2018-03-11"
   sodipodi:docname="drawing.svg">
  <defs
     id="defs4072">
    <clipPath
       clipPathUnits="userSpaceOnUse"
       id="clipPath230">
      <path
         d="M 0,1190.55 H 841.89 V 0 H 0 Z"
         id="path228"
         inkscape:connector-curvature="0" />
    </clipPath>
  </defs>
  <sodipodi:namedview
     id="base"
     pagecolor="#ffffff"
     bordercolor="#666666"
     borderopacity="1.0"
     inkscape:pageopacity="0.0"
     inkscape:pageshadow="2"
     inkscape:zoom="0.35"
     inkscape:cx="-158.21896"
     inkscape:cy="-34.289652"
     inkscape:document-units="mm"
     inkscape:current-layer="layer1"
     showgrid="false"
     inkscape:window-width="1366"
     inkscape:window-height="703"
     inkscape:window-x="0"
     inkscape:window-y="0"
     inkscape:window-maximized="1" />
  <metadata
     id="metadata4075">
    <rdf:RDF>
      <cc:Work
         rdf:about="">
        <dc:format>image/svg+xml</dc:format>
        <dc:type
           rdf:resource="http://purl.org/dc/dcmitype/StillImage" />
        <dc:title></dc:title>
      </cc:Work>
    </rdf:RDF>
  </metadata>
  <g
     inkscape:label="Layer 1"
     inkscape:groupmode="layer"
     id="layer1"
     transform="translate(-147.69543,-55.09628)">
    <g
       transform="matrix(0.35277777,0,0,-0.35277777,116.76773,85.662083)"
       id="g224">
      <g
         id="g226"
         clip-path="url(#clipPath230)">
        <g
           id="g232"
           transform="translate(124.5928,18.1387)">
          <path
             d="m 0,0 c -0.001,-0.02 -0.001,-0.04 -0.001,-0.061 h -1.623 c 0,0.021 -10e-4,0.04 -10e-4,0.061 0.06,0.073 0.144,0.095 0.23,0.099 0.388,0.016 0.776,0.016 1.164,0 C -0.145,0.095 -0.06,0.073 0,0"
             style="fill:#cbdcf1;fill-opacity:1;fill-rule:nonzero;stroke:none"
             id="path234"
             inkscape:connector-curvature="0" />
        </g>
        <g
           id="g236"
           transform="translate(145.9058,35.54)">
          <path
             d="m 0,0 0.016,-0.001 c 0.096,0 0.159,-0.06 0.219,-0.121 C 0.848,-0.741 1.461,-1.36 2.165,-1.879 2.209,-1.912 2.238,-1.958 2.246,-2.014 2.291,-2.128 2.211,-2.195 2.149,-2.27 1.55,-2.979 0.937,-3.679 0.307,-4.362 c -2.046,-2.22 -4.225,-4.305 -6.493,-6.295 -1.949,-1.711 -4.065,-3.184 -6.378,-4.365 -1.848,-0.944 -3.786,-1.634 -5.824,-2.031 -0.966,-0.187 -1.944,-0.283 -2.925,-0.347 -0.542,-0.001 -1.083,-0.001 -1.625,-0.001 -3.409,0.168 -6.613,1.106 -9.68,2.563 -3.055,1.451 -5.854,3.299 -8.475,5.429 -2.06,1.674 -3.99,3.486 -5.824,5.403 -2.274,2.378 -4.392,4.893 -6.396,7.502 -1.661,2.162 -3.243,4.379 -4.755,6.648 -0.024,0.036 -0.05,0.07 -0.074,0.107 -0.137,0.212 -0.137,0.213 0.077,0.382 0.62,0.488 1.241,0.975 1.861,1.464 3.134,2.471 6.266,4.943 9.399,7.414 2.446,1.928 4.891,3.857 7.338,5.784 0.033,0.026 0.074,0.042 0.111,0.062 0.004,-0.08 0.009,-0.16 0.014,-0.24 0.174,-2.029 0.121,-4.064 0.069,-6.094 -0.07,-2.67 0.023,-5.342 -0.056,-8.011 -0.089,-3.039 0.013,-6.078 -0.072,-9.116 -0.055,-1.967 -0.016,-3.935 -0.049,-5.902 -10e-4,-0.108 0.005,-0.217 0.002,-0.325 -0.007,-0.223 0.106,-0.312 0.319,-0.304 0.086,0.003 0.173,-0.001 0.259,-0.001 5.322,0 10.644,-0.027 15.966,0.013 2.253,0.017 4.487,0.301 6.656,0.962 0.239,0.072 0.489,0.077 0.725,0.157 0.059,0.004 0.117,0.008 0.176,0.013 0.089,0.018 0.176,0.043 0.266,0.049 0.487,0.082 0.969,-0.026 1.454,-0.038 2.248,-0.059 4.43,0.321 6.577,0.959 2.065,0.616 4.069,1.393 6.061,2.205 0.18,0.073 0.36,0.147 0.543,0.212 0.084,0.03 0.169,0.061 0.255,0.085 C -0.153,-0.008 -0.114,0 -0.075,0.003 -0.05,0.004 -0.025,0.003 0,0"
             style="fill:#008ece;fill-opacity:1;fill-rule:nonzero;stroke:none"
             id="path238"
             inkscape:connector-curvature="0" />
        </g>
        <g
           id="g240"
           transform="translate(141.2661,55.7373)">
          <path
             d="m 0,0 c 0.009,-0.083 0.017,-0.166 -0.085,-0.237 -0.064,0.103 -0.036,0.204 -0.03,0.3 C -0.077,0.042 -0.038,0.021 0,0"
             style="fill:#b6b3b2;fill-opacity:1;fill-rule:nonzero;stroke:none"
             id="path242"
             inkscape:connector-curvature="0" />
        </g>
        <g
           id="g244"
           transform="translate(131.7212,50.0771)">
          <path
             d="m 0,0 c -0.067,-1.422 -0.131,-2.846 -0.44,-4.244 -0.3,-1.36 -0.803,-2.622 -1.708,-3.698 -0.767,-0.913 -1.724,-1.564 -2.824,-2.012 -1.038,-0.424 -2.121,-0.648 -3.233,-0.763 -1.379,-0.141 -2.763,-0.107 -4.146,-0.117 -0.692,-0.005 -1.384,-0.006 -2.076,-0.006 -0.302,0 -0.305,0.002 -0.304,0.301 0.002,1.547 0.005,3.094 0.009,4.64 v 0.421 h 0.011 c 0,1.482 -0.022,2.964 0.004,4.446 0.077,4.357 0.03,8.716 0.061,13.073 0.001,0.054 0.004,0.108 0.001,0.162 -0.011,0.152 0.058,0.222 0.21,0.208 0.022,-10e-4 0.043,0 0.065,0.001 1.968,0.039 3.935,0.067 5.903,0.035 1.236,-0.021 2.448,-0.216 3.598,-0.714 C -3.728,11.24 -2.805,10.48 -2.072,9.486 -1.283,8.417 -0.817,7.201 -0.509,5.92 -0.258,4.879 -0.119,3.822 -0.041,2.755 0.027,1.836 0.043,0.917 0,0 m 46.528,-4.799 c -2.931,-0.002 -5.862,-0.005 -8.793,-0.008 -0.317,0 -0.318,-10e-4 -0.396,-0.291 -0.209,-0.784 -0.462,-1.552 -0.795,-2.293 -0.76,-1.692 -1.98,-2.884 -3.756,-3.486 -1.076,-0.364 -2.189,-0.477 -3.312,-0.534 -0.595,-0.03 -1.186,0.03 -1.776,0.11 -0.831,0.113 -1.626,0.345 -2.371,0.729 -0.393,0.203 -0.778,0.427 -1.07,0.775 -0.04,0.033 -0.085,0.034 -0.132,0.019 -1.257,-0.691 -2.539,-1.334 -3.894,-1.97 0.49,0.663 0.908,1.301 1.33,1.935 0.381,0.574 0.774,1.14 1.131,1.729 0,0.033 -0.007,0.065 -0.023,0.095 -1.129,1.501 -1.796,3.197 -2.107,5.038 -0.223,1.324 -0.288,2.66 -0.287,4.004 10e-4,1.635 0.207,3.234 0.667,4.8 0.673,2.29 1.743,4.344 3.557,5.96 1.341,1.195 2.902,1.817 4.689,1.856 1.305,0.028 2.591,-0.104 3.825,-0.57 0.157,-0.06 0.297,-0.059 0.396,0.101 0.077,0.132 0.13,0.273 0.187,0.412 0.417,1.029 0.846,2.052 1.264,3.08 0.589,1.448 1.202,2.885 1.767,4.341 0.008,0.033 0.005,0.067 -0.007,0.098 -0.876,0.28 -1.774,0.463 -2.68,0.605 -1.131,0.177 -2.272,0.276 -3.414,0.315 -1.37,0.047 -2.741,0.063 -4.11,-0.098 C 25.28,21.818 24.16,21.616 23.056,21.307 20.073,20.469 17.473,18.965 15.249,16.812 14.347,15.938 13.553,14.969 12.849,13.928 11.456,11.866 10.482,9.618 9.875,7.208 9.747,6.696 9.605,6.187 9.545,5.66 9.422,5.527 9.477,5.717 9.43,5.724 9.43,6.406 9.322,7.08 9.209,7.749 8.884,9.68 8.298,11.525 7.315,13.23 6.52,14.612 5.517,15.822 4.284,16.834 c -1.419,1.165 -3.019,2.002 -4.755,2.591 -2.324,0.787 -4.728,1.095 -7.166,1.136 -3.222,0.055 -6.445,-0.008 -9.667,0.064 -1.297,0.029 -2.595,0.012 -3.893,0.015 -1.19,0.003 -2.38,0.006 -3.569,0.008 -0.274,0 -0.283,-0.004 -0.281,-0.261 0.008,-0.985 -0.043,-1.967 -0.05,-2.95 -0.015,-2.207 -0.019,-4.412 -0.074,-6.617 -0.065,-0.07 -0.075,-0.153 -0.058,-0.242 0.081,-0.304 0.11,-0.616 0.155,-0.926 0.377,-2.606 0.946,-5.169 1.76,-7.674 0.699,-2.154 1.562,-4.238 2.61,-6.249 1.288,-2.468 2.84,-4.753 4.717,-6.805 1.472,-1.609 3.098,-3.05 4.946,-4.223 1.719,-1.091 3.541,-1.941 5.523,-2.446 1.368,-0.349 2.752,-0.422 4.151,-0.381 0.066,0.003 0.132,0.012 0.195,0.031 0.105,0.039 0.205,0.093 0.318,0.108 1.174,0.315 2.285,0.783 3.343,1.383 2.273,1.288 3.926,3.152 5.061,5.485 0.822,1.691 1.326,3.489 1.699,5.326 0.094,0.465 0.216,0.927 0.205,1.407 0.006,0.04 -0.017,0.085 0.023,0.118 -0.035,-0.035 -0.017,-0.08 -0.021,-0.121 0.002,-0.414 0.113,-0.81 0.202,-1.21 0.698,-3.14 1.97,-6.007 4.042,-8.495 0.176,-0.132 0.263,-0.351 0.458,-0.465 0.03,-0.009 0.061,-0.012 0.093,-0.009 1.198,0.442 2.349,0.993 3.512,1.515 0.712,0.321 1.407,0.675 2.133,0.989 -1.074,-1.499 -2.173,-2.957 -3.345,-4.362 -0.018,-0.025 -0.033,-0.053 -0.044,-0.083 -0.001,-0.016 -0.002,-0.032 -0.003,-0.048 0.037,-0.083 0.108,-0.132 0.179,-0.182 1.073,-0.757 2.212,-1.391 3.426,-1.893 2.489,-1.028 5.098,-1.449 7.77,-1.541 1.189,-0.04 2.374,0.027 3.557,0.173 1.484,0.184 2.93,0.516 4.334,1.033 2.914,1.076 5.38,2.783 7.357,5.186 1.319,1.602 2.314,3.385 2.979,5.351 0.357,1.057 0.602,2.138 0.742,3.244 0.048,0.377 0.054,0.387 -0.32,0.387"
             style="fill:#4c4c4c;fill-opacity:1;fill-rule:nonzero;stroke:none"
             id="path246"
             inkscape:connector-curvature="0" />
        </g>
        <g
           id="g248"
           transform="translate(193.1611,63.8193)">
          <path
             d="m 0,0 c -0.645,2.91 -1.286,5.821 -1.931,8.73 -0.878,3.954 -1.758,7.907 -2.637,11.859 -0.151,0.675 -0.301,1.349 -0.452,2.024 -0.053,0.239 -0.053,0.239 -0.297,0.174 -0.021,-0.005 -0.04,-0.015 -0.061,-0.02 -2.124,-0.587 -4.247,-1.175 -6.372,-1.761 -5.465,-1.508 -10.932,-3.015 -16.397,-4.526 -0.36,-0.099 -0.728,-0.177 -1.086,-0.324 0.034,-0.101 0.104,-0.155 0.165,-0.214 0.616,-0.607 1.234,-1.213 1.85,-1.82 1.163,-1.146 2.324,-2.296 3.491,-3.438 0.112,-0.11 0.128,-0.201 0.069,-0.339 -0.142,-0.339 -0.272,-0.683 -0.406,-1.025 -0.252,-0.643 -0.503,-1.287 -0.754,-1.931 0,10e-4 -0.004,-0.001 -0.004,-0.001 -0.036,-0.066 -0.079,-0.128 -0.108,-0.197 -0.795,-1.933 -1.591,-3.866 -2.38,-5.802 -0.255,-0.628 -0.539,-1.244 -0.757,-1.888 -0.001,-0.054 -0.003,-0.107 -0.004,-0.161 -0.029,0.003 -0.057,0.003 -0.085,-0.006 -0.116,-0.043 -0.148,-0.15 -0.191,-0.249 -0.679,-1.555 -1.363,-3.107 -2.076,-4.647 -1.225,-2.65 -2.467,-5.29 -3.808,-7.883 -1.397,-2.7 -2.842,-5.369 -4.43,-7.961 -0.072,-0.119 -0.161,-0.235 -0.135,-0.389 0,-0.017 0,-0.035 -0.002,-0.053 -0.003,-0.021 -0.012,-0.047 -0.002,-0.063 0.388,-0.663 0.918,-1.193 1.547,-1.628 h 0.072 c 0.084,0.049 0.166,0.101 0.251,0.147 2.498,1.363 4.941,2.816 7.324,4.371 6.234,4.069 11.972,8.751 17.274,13.972 2.198,2.164 4.309,4.409 6.341,6.729 0.201,0.229 0.205,0.227 0.483,0.119 1.741,-0.678 3.483,-1.358 5.225,-2.035 0.096,-0.037 0.188,-0.104 0.304,-0.083 C 0.057,-0.208 0.023,-0.105 0,0"
             style="fill:#008ece;fill-opacity:1;fill-rule:nonzero;stroke:none"
             id="path250"
             inkscape:connector-curvature="0" />
        </g>
        <g
           id="g252"
           transform="translate(145.5576,35.4092)">
          <path
             d="M 0,0 C 0.056,0.091 0.068,0.177 -0.026,0.253 -0.151,0.354 -0.141,0.469 -0.062,0.591 0.11,0.469 0.216,0.288 0.348,0.131 0.335,0.125 0.324,0.116 0.314,0.105 L 0.279,0.088 C 0.186,0.059 0.093,0.029 0,0"
             style="fill:#ffffff;fill-opacity:1;fill-rule:nonzero;stroke:none"
             id="path254"
             inkscape:connector-curvature="0" />
        </g>
        <g
           id="g256"
           transform="translate(130.8281,32.1533)">
          <path
             d="M 0,0 C -0.001,-0.037 -0.001,-0.074 -0.002,-0.111 -0.092,-0.133 -0.18,-0.123 -0.269,-0.104 -0.19,-0.041 -0.106,0.008 0,0"
             style="fill:#c7d2e2;fill-opacity:1;fill-rule:nonzero;stroke:none"
             id="path258"
             inkscape:connector-curvature="0" />
        </g>
        <g
           id="g260"
           transform="translate(141.2007,45.7256)">
          <path
             d="m 0,0 h -0.024 l -0.023,-0.001 c 0.001,0.03 -0.026,0.074 0.032,0.077 C -0.011,0.077 -0.005,0.026 0,0"
             style="fill:#d5d7d8;fill-opacity:1;fill-rule:nonzero;stroke:none"
             id="path262"
             inkscape:connector-curvature="0" />
        </g>
        <g
           id="g264"
           transform="translate(148.2207,33.5215)">
          <path
             d="M 0,0 C 0.012,0.036 0.037,0.058 0.074,0.066 0.06,0.032 0.04,0.006 0,0"
             style="fill:#ffffff;fill-opacity:1;fill-rule:nonzero;stroke:none"
             id="path266"
             inkscape:connector-curvature="0" />
        </g>
        <g
           id="g268"
           transform="translate(145.8369,35.4971)">
          <path
             d="m 0,0 0.012,0.02 c 0,0 0.024,-0.001 0.023,-0.001 C 0.028,0.002 0.016,-0.004 0,0"
             style="fill:#9e9e9e;fill-opacity:1;fill-rule:nonzero;stroke:none"
             id="path270"
             inkscape:connector-curvature="0" />
        </g>
        <g
           id="g272"
           transform="translate(165.0889,63.1211)">
          <path
             d="M 0,0 C 0.058,0.002 0.11,-0.008 0.133,-0.071 0.079,-0.065 0.029,-0.052 0,0"
             style="fill:#ffffff;fill-opacity:1;fill-rule:nonzero;stroke:none"
             id="path274"
             inkscape:connector-curvature="0" />
        </g>
      </g>
    </g>
  </g>
</svg>
